<svg width="75" height="12" viewBox="0 0 75 12" fill="none" xmlns="http://www.w3.org/2000/svg">
<path d="M-3.05176e-05 0.663327H6.05668C7.51676 0.663327 8.75024 0.894909 9.76216 1.35585C10.7714 1.81675 11.5281 2.45982 12.0296 3.28275C12.5307 4.10568 12.7836 5.04778 12.7836 6.10904C12.7836 7.14783 12.5218 8.08992 11.9983 8.93307C11.4747 9.77849 10.6782 10.4463 9.60672 10.9387C8.53525 11.4311 7.20819 11.6784 5.62206 11.6784H-3.05176e-05V0.663327ZM5.55981 8.87913C6.54273 8.87913 7.29945 8.62955 7.82726 8.13263C8.35545 7.63347 8.61954 6.95446 8.61954 6.09331C8.61954 5.29509 8.38406 4.65877 7.91387 4.1821C7.44368 3.70543 6.73143 3.46487 5.77944 3.46487H3.88475V8.87913H5.55981Z" fill="#F2F2F2"/>
<path d="M21.8514 11.665C21.0127 11.4447 20.256 11.1254 19.584 10.705V8.09229C20.0921 8.49023 20.773 8.81853 21.6272 9.07709C22.4813 9.33342 23.3069 9.46156 24.1053 9.46156C24.4781 9.46156 24.76 9.41211 24.9506 9.31316C25.1416 9.21425 25.2371 9.09508 25.2371 8.95792C25.2371 8.80054 25.1861 8.67013 25.0817 8.56443C24.9773 8.45877 24.7754 8.37106 24.4762 8.29686L22.6124 7.87191C21.5452 7.6201 20.7885 7.27158 20.3384 6.82415C19.8879 6.37894 19.6636 5.79434 19.6636 5.07036C19.6636 4.46102 19.8589 3.93267 20.2541 3.4807C20.6466 3.02878 21.2057 2.68026 21.9311 2.43517C22.6569 2.18786 23.5041 2.0642 24.4781 2.0642C25.3477 2.0642 26.1443 2.15862 26.87 2.3475C27.5954 2.53638 28.1944 2.77694 28.6715 3.07148V5.54254C28.1832 5.248 27.6241 5.01641 26.9853 4.841C26.3484 4.66789 25.6942 4.58245 25.0194 4.58245C24.0454 4.58245 23.5597 4.75107 23.5597 5.08609C23.5597 5.24351 23.6351 5.36041 23.7859 5.4391C23.9368 5.51779 24.214 5.59875 24.6157 5.68419L26.1686 5.96749C27.1829 6.14513 27.9392 6.45767 28.4361 6.90284C28.9333 7.34805 29.1816 8.00684 29.1816 8.87923C29.1816 9.83479 28.7713 10.5925 27.9481 11.1547C27.1249 11.7168 25.9579 11.9978 24.4448 11.9978C23.5551 11.9956 22.6901 11.8854 21.8514 11.665Z" fill="#F2F2F2"/>
<path d="M32.8472 11.3345C31.9578 10.8938 31.2854 10.2957 30.8373 9.54022C30.3891 8.78474 30.1629 7.93484 30.1629 6.99048C30.1629 6.04615 30.3957 5.20074 30.8616 4.4565C31.3276 3.71226 32.0108 3.12766 32.9118 2.70271C33.8123 2.27776 34.8884 2.0664 36.142 2.0664C37.6949 2.0664 38.9841 2.39693 40.0091 3.05795V5.93823C39.6476 5.68639 39.2257 5.48178 38.7443 5.3244C38.2629 5.16701 37.7483 5.08829 37.198 5.08829C36.2352 5.08829 35.4831 5.26592 34.9395 5.62343C34.3958 5.98093 34.1232 6.44636 34.1232 7.0242C34.1232 7.5908 34.3869 8.05401 34.9151 8.41826C35.4433 8.78025 36.2085 8.96238 37.2135 8.96238C37.7305 8.96238 38.2409 8.88592 38.7443 8.73529C39.2458 8.5824 39.6785 8.39578 40.0401 8.1754V10.9612C38.9021 11.6537 37.582 12 36.0798 12C34.8153 11.9955 33.7369 11.7752 32.8472 11.3345Z" fill="#F2F2F2"/>
<path d="M43.8829 11.3343C42.9866 10.8937 42.3033 10.2911 41.8328 9.52434C41.3626 8.75762 41.1251 7.90323 41.1251 6.95887C41.1251 6.01454 41.3602 5.17135 41.8328 4.43164C42.3053 3.69189 42.9843 3.11178 43.8763 2.69132C44.7657 2.27086 45.8286 2.06176 47.0598 2.06176C48.2913 2.06176 49.3539 2.27086 50.2436 2.69132C51.1334 3.11178 51.8124 3.6874 52.2783 4.42262C52.7442 5.15789 52.977 6.00104 52.977 6.95664C52.977 7.90096 52.7442 8.75539 52.2783 9.52208C51.8124 10.2888 51.1311 10.8914 50.2347 11.3321C49.3384 11.7728 48.2801 11.9931 47.0578 11.9931C45.8352 11.9931 44.7769 11.775 43.8829 11.3343ZM48.6018 8.54177C48.9792 8.15956 49.1698 7.65365 49.1698 7.02409C49.1698 6.39453 48.9812 5.89311 48.6018 5.5221C48.2248 5.14887 47.7098 4.96226 47.0578 4.96226C46.3943 4.96226 45.875 5.14887 45.4957 5.5221C45.1187 5.89537 44.93 6.39453 44.93 7.02409C44.93 7.65365 45.1187 8.15956 45.4957 8.54177C45.8731 8.92402 46.3943 9.11739 47.0578 9.11739C47.7098 9.11512 48.2248 8.92402 48.6018 8.54177Z" fill="#F2F2F2"/>
<path d="M62.3085 2.64627V6.04592C61.9137 5.78283 61.4033 5.65243 60.7711 5.65243C59.9432 5.65243 59.3044 5.90653 58.8605 6.41466C58.4147 6.92283 58.1927 7.71426 58.1927 8.7845V11.6805H54.3879V2.47315H58.1154V5.40062C58.3215 4.33034 58.6568 3.54117 59.1181 3.03074C59.5774 2.52261 60.1717 2.26854 60.8952 2.26854C61.4431 2.26854 61.9137 2.39446 62.3085 2.64627Z" fill="#F2F2F2"/>
<path d="M74.9504 0.348387V11.6805H71.1452V9.61874C70.8235 10.3944 70.3355 10.9858 69.6789 11.3905C69.022 11.793 68.21 11.9953 67.2471 11.9953C66.3864 11.9953 65.6367 11.784 64.9952 11.359C64.3541 10.9341 63.8595 10.3517 63.5111 9.61199C63.1651 8.87224 62.9895 8.03584 62.9895 7.1005C62.9787 6.13591 63.1627 5.27024 63.5421 4.50352C63.9194 3.7368 64.4538 3.13873 65.1417 2.70925C65.8296 2.27981 66.6149 2.06396 67.4958 2.06396C69.3085 2.06396 70.5242 2.86215 71.1452 4.45629V0.348387H74.9504ZM70.5775 8.47879C70.9658 8.09654 71.1587 7.59965 71.1587 6.99257C71.1587 6.40571 70.97 5.92678 70.593 5.5603C70.2156 5.19382 69.6987 5.00943 69.0487 5.00943C68.4076 5.00943 67.8952 5.19604 67.5112 5.56927C67.1273 5.94254 66.9367 6.42593 66.9367 7.02403C66.9367 7.62213 67.1273 8.11004 67.5112 8.48777C67.8952 8.86549 68.401 9.05437 69.0332 9.05437C69.6743 9.05214 70.1889 8.861 70.5775 8.47879Z" fill="#F2F2F2"/>
<path d="M15.9899 3.45359C17.0374 3.45359 17.8869 2.68046 17.8869 1.72678C17.8869 0.773093 17.0374 0 15.9899 0C14.9421 0 14.0929 0.773093 14.0929 1.72678C14.0929 2.68046 14.9421 3.45359 15.9899 3.45359Z" fill="#F2F2F2"/>
<path d="M14.0913 4.64304C15.2537 5.15118 16.696 5.17366 17.885 4.64304V11.7301H14.0913V4.64304Z" fill="#F2F2F2"/>
</svg>
