<svg width="21" height="21" viewBox="0 0 21 21" fill="none" xmlns="http://www.w3.org/2000/svg">
<path d="M10.5 21C4.69867 21 0 16.3013 0 10.5C0 4.69867 4.69867 0 10.5 0C16.3013 0 21 4.69867 21 10.5C21 16.3013 16.3013 21 10.5 21Z" fill="#F2F2F2"/>
<path fill-rule="evenodd" clip-rule="evenodd" d="M21 10.5C21 16.299 16.299 21 10.5 21C4.70101 21 0 16.299 0 10.5C0 4.70101 4.70101 0 10.5 0C16.299 0 21 4.70101 21 10.5ZM12.5733 6.00068C13.5261 6.16258 14.4374 6.44526 15.2872 6.82895C15.2946 6.83207 15.3009 6.83728 15.3046 6.84456C16.8103 9.02378 17.5539 11.482 17.2759 14.312C17.2749 14.324 17.2686 14.3349 17.2586 14.3422C16.1181 15.1663 15.0134 15.6666 13.9239 15.9982C13.9066 16.0034 13.8877 15.9971 13.8772 15.9826C13.6254 15.6379 13.3968 15.2745 13.1966 14.893C13.185 14.8706 13.1955 14.8435 13.2192 14.8347C13.5823 14.6998 13.9276 14.5384 14.2598 14.3474C14.286 14.3323 14.2876 14.2953 14.2635 14.2776C14.193 14.2261 14.1231 14.1719 14.0564 14.1178C14.0438 14.1079 14.0269 14.1058 14.0128 14.1126C11.8564 15.0929 9.49405 15.0929 7.31196 14.1126C7.29776 14.1063 7.28094 14.1084 7.26886 14.1183C7.20212 14.1725 7.13221 14.2261 7.06231 14.2776C7.03814 14.2953 7.04024 14.3323 7.06652 14.3474C7.39867 14.5348 7.74396 14.6998 8.10659 14.8352C8.13023 14.844 8.14128 14.8706 8.12971 14.893C7.93369 15.2751 7.70507 15.6385 7.4486 15.9831C7.43756 15.9971 7.41917 16.0034 7.40182 15.9982C6.31762 15.6666 5.21289 15.1663 4.07244 14.3422C4.06298 14.3349 4.05615 14.3234 4.0551 14.3115C3.82281 11.8636 4.29633 9.38506 6.02488 6.84404C6.02907 6.83728 6.03538 6.83207 6.04274 6.82895C6.89309 6.44475 7.80439 6.16206 8.75669 6.00068C8.77405 5.99808 8.79138 6.00588 8.80032 6.02098C8.91805 6.22609 9.05258 6.489 9.14351 6.704C10.1473 6.55303 11.1669 6.55303 12.1917 6.704C12.2826 6.49368 12.4124 6.22609 12.5297 6.02098C12.5386 6.00536 12.5559 5.99755 12.5733 6.00068ZM7.2573 11.4987C7.2573 12.2275 7.79861 12.821 8.45557 12.821C9.123 12.821 9.65382 12.2275 9.65382 11.4987C9.66434 10.7751 9.12826 10.1764 8.45557 10.1764C7.78811 10.1764 7.2573 10.7698 7.2573 11.4987ZM11.6877 11.4987C11.6877 12.2275 12.229 12.821 12.886 12.821C13.5587 12.821 14.0842 12.2275 14.0842 11.4987C14.0947 10.7751 13.5587 10.1764 12.886 10.1764C12.2185 10.1764 11.6877 10.7698 11.6877 11.4987Z" fill="#5865F2"/>
</svg>
