<svg width="13" height="10" viewBox="0 0 13 10" fill="none" xmlns="http://www.w3.org/2000/svg">
<path d="M0.867507 9.54545H2.89169V4.62958L0 2.46081V8.67795C0 9.15797 0.388933 9.54545 0.867507 9.54545Z" fill="#4285F4"/>
<path d="M9.83101 9.54536H11.8552C12.3352 9.54536 12.7227 9.15643 12.7227 8.67785V2.46071L9.83101 4.62948" fill="#34A853"/>
<path d="M9.83101 0.869969V4.62948L12.7227 2.46071V1.30372C12.7227 0.230905 11.4981 -0.380688 10.6407 0.262713" fill="#FBBC04"/>
<path d="M2.89169 4.62958L2.89151 0.870284L6.36154 3.47281L9.83101 0.869969V4.62948L6.36154 7.23201" fill="#EA4335"/>
<path d="M0 1.30393V2.46081L2.89169 4.62958L2.89151 0.870284L2.08202 0.262924C1.22319 -0.380477 0 0.231116 0 1.30393Z" fill="#C5221F"/>
</svg>
