<svg width="40" height="12" viewBox="0 0 40 12" fill="none" xmlns="http://www.w3.org/2000/svg">
<path d="M11.2518 5.59337H8.6988C7.83839 5.59337 6.97889 5.59716 6.11841 5.5847C5.95582 5.58287 5.91138 5.63439 5.91608 5.79174C5.92744 6.11425 5.9303 6.43676 5.91608 6.75926C5.91254 6.84191 5.92457 6.89342 5.95496 6.92479C5.98945 6.96031 6.04761 6.97008 6.13355 6.97008C7.36939 6.96434 8.60523 6.96434 9.84107 6.96434C9.98383 6.96434 10.0689 6.97008 10.0415 7.15514C9.90534 8.08824 9.5489 8.90306 8.8454 9.54027C8.19953 10.1232 7.38288 10.4776 6.51935 10.5498C4.85804 10.7186 3.4596 10.213 2.4195 8.86388C1.53443 7.7152 1.33497 6.38707 1.60157 4.99413C1.92591 3.29784 2.92347 2.11766 4.56019 1.62157C6.19691 1.12548 7.72394 1.40209 8.97492 2.67394C9.05622 2.75206 9.09882 2.75402 9.17536 2.67394C9.42219 2.41442 9.67652 2.16344 9.92707 1.91063C10.1285 1.70934 10.1313 1.70739 9.92707 1.5089C8.99287 0.598743 7.85163 0.160876 6.58082 0.0358764C4.59516 -0.15968 2.89509 0.440417 1.53162 1.92968C0.262702 3.31688 -0.165643 4.97704 0.0556093 6.81835C0.308051 8.91539 1.43799 10.4153 3.26197 11.3902C4.31531 11.9532 5.45753 12.0734 6.63471 11.9628C8.18635 11.8168 9.46094 11.1489 10.4339 9.92296C11.4069 8.69689 11.6338 7.26683 11.474 5.74596C11.4579 5.59337 11.3671 5.59337 11.2518 5.59337Z" fill="#F2F2F2"/>
<path d="M38.3624 11.7403C38.7803 11.7261 39.1992 11.7346 39.6181 11.7346L39.619 0.251453L39.4296 0.251941L38.9904 0.253894C38.7812 0.25426 38.5722 0.252795 38.3633 0.245715C38.1875 0.239978 38.1563 0.302966 38.1563 0.464221V3.38365L38.1589 6.46239C38.1595 8.14891 38.1586 9.83544 38.1563 11.5218C38.156 11.5608 38.1577 11.594 38.1628 11.6219C38.1679 11.6498 38.1765 11.6724 38.1901 11.6901C38.2045 11.7088 38.2247 11.722 38.2524 11.7302C38.2806 11.7386 38.3166 11.7418 38.3624 11.7403Z" fill="#F2F2F2"/>
<path d="M14.5064 4.95128C15.1332 4.10216 15.9606 3.60692 17.0196 3.62511C18.0786 3.64318 18.9013 4.11071 19.3929 5.11254C19.5844 4.83373 19.8065 4.57775 20.0548 4.34923C20.9569 3.55541 22.4782 3.37316 23.5316 3.95043C24.3126 4.37877 24.6747 5.09532 24.8279 5.94152C24.8803 6.25255 24.905 6.56774 24.9017 6.88329C24.9017 8.43077 24.9017 9.97826 24.9074 11.5267C24.9074 11.6937 24.8685 11.75 24.6965 11.7423C24.3561 11.729 24.0147 11.729 23.6743 11.7423C23.4852 11.751 23.4228 11.706 23.4247 11.501C23.4341 10.046 23.4247 8.59105 23.4304 7.1361C23.4377 6.79918 23.406 6.46276 23.3358 6.13329C23.1675 5.4121 22.7241 5.03234 21.9884 4.98839C20.8405 4.91503 19.947 5.66295 19.7541 6.85558C19.7204 7.07653 19.7052 7.29991 19.7087 7.52343V11.5438C19.7087 11.6985 19.6785 11.7566 19.512 11.751C19.1502 11.7363 18.7881 11.7363 18.4256 11.751C18.2564 11.7576 18.2289 11.6927 18.2299 11.541C18.2316 10.9711 18.2327 10.4011 18.233 9.83116C18.2336 8.94652 18.2326 8.06176 18.2299 7.17711C18.2318 7.12279 18.2327 7.06847 18.2326 7.01427L18.2318 6.93883C18.2305 6.8756 18.2279 6.81249 18.2239 6.7495C18.2102 6.53478 18.1807 6.32115 18.1353 6.11046C17.9585 5.40917 17.5236 5.04003 16.8069 4.99327C15.6174 4.91405 14.6935 5.71739 14.5461 6.95482C14.5209 7.1765 14.5086 7.39952 14.5092 7.62267V11.4713L14.5098 11.5366L14.5105 11.5748C14.5123 11.6634 14.5132 11.7078 14.4915 11.7297C14.484 11.7373 14.4737 11.7422 14.4598 11.7453C14.439 11.75 14.4101 11.7507 14.37 11.7505C14.3325 11.7502 14.2852 11.7493 14.2255 11.75C13.8965 11.7538 13.5712 11.7433 13.245 11.75C13.1022 11.7547 13.0502 11.7213 13.0512 11.564C13.053 10.5239 13.0541 9.48375 13.0544 8.44347C13.0549 6.9829 13.0538 5.52208 13.0512 4.06114C13.0512 3.91796 13.0928 3.87596 13.2318 3.87987C13.5797 3.88878 13.9264 3.88878 14.2719 3.87987C14.4089 3.87987 14.4609 3.91222 14.4553 4.05822C14.45 4.17418 14.4489 4.29015 14.4497 4.40624C14.4504 4.5194 14.4529 4.63268 14.4553 4.74608C14.4562 4.75096 14.4569 4.75609 14.4573 4.76122L14.458 4.77648L14.4579 4.80114C14.4571 4.84813 14.4562 4.90062 14.5064 4.95128Z" fill="#F2F2F2"/>
<path fill-rule="evenodd" clip-rule="evenodd" d="M31.5058 10.7001C31.5172 10.6916 31.5293 10.6846 31.542 10.6788C31.5606 10.6704 31.5804 10.6648 31.6008 10.6622C31.6008 10.7689 31.6016 10.8736 31.6023 10.9769C31.6038 11.1794 31.6052 11.3763 31.6008 11.5715C31.5961 11.707 31.6405 11.7394 31.7691 11.7394C32.1133 11.7289 32.4622 11.7251 32.8092 11.7394C32.9785 11.7461 33.005 11.6821 33.005 11.5295C33.0002 10.8664 33.0078 10.1986 33.0002 9.53075C32.9961 9.18358 33.0013 8.83605 33.0065 8.48851C33.0169 7.79698 33.0272 7.10558 32.9642 6.41661C32.8593 5.25939 32.2778 4.41307 31.2141 3.94554C30.2893 3.54198 29.3239 3.52587 28.3557 3.75475C27.6013 3.93322 26.9324 4.37194 26.4646 4.9951C26.4438 5.02172 26.4262 5.04552 26.4133 5.06774C26.3987 5.09301 26.3904 5.11608 26.3909 5.13842C26.3916 5.18053 26.4231 5.22032 26.5015 5.26793C26.84 5.46349 27.1681 5.67821 27.4934 5.89476C27.5964 5.96251 27.6503 5.96532 27.7307 5.85753C28.2328 5.18785 28.9107 4.89867 29.7343 4.94359C30.6089 4.99218 31.6538 5.70397 31.6055 6.91942C31.598 7.10265 31.5582 7.08922 31.4164 7.03014C30.1598 6.50438 28.8823 6.46813 27.6276 6.99193C27.2857 7.12792 26.9784 7.33959 26.7282 7.61132C26.4781 7.88292 26.2915 8.20775 26.1822 8.56188C26.0729 8.91588 26.0436 9.29015 26.0966 9.65709C26.1495 10.0242 26.2834 10.3744 26.4882 10.6824C26.9875 11.4418 27.7175 11.8443 28.611 11.9626C29.7835 12.1153 30.7328 11.7461 31.441 10.7797C31.4555 10.7479 31.4778 10.7206 31.5058 10.7001ZM28.1212 8.32006C28.592 7.93834 29.1471 7.82299 29.791 7.82299C30.2941 7.84301 30.8339 7.91832 31.337 8.19213C31.5507 8.30858 31.6131 8.43639 31.5753 8.68541C31.3757 9.97814 29.9763 10.9457 28.7282 10.6127C28.2158 10.4762 27.7988 10.1901 27.6484 9.64806C27.4981 9.10619 27.6967 8.66344 28.1212 8.32006Z" fill="#F2F2F2"/>
<path d="M36.2458 10.0254C36.2465 10.5109 36.2486 10.9963 36.2539 11.4818C36.2539 11.7098 36.1867 11.7546 35.9816 11.7441C35.6345 11.7279 35.2857 11.7336 34.9415 11.7441C34.8072 11.7441 34.7741 11.7003 34.775 11.5715V4.05052C34.775 3.90453 34.8251 3.87023 34.9642 3.87303C35.1243 3.87682 35.2847 3.87926 35.445 3.87999C35.6539 3.88097 35.8628 3.87902 36.0714 3.87303C36.1211 3.87145 36.1584 3.87621 36.1861 3.88817C36.2448 3.91356 36.2605 3.97106 36.2605 4.06957C36.2454 5.31371 36.2473 6.56066 36.2473 7.80675C36.2473 8.54625 36.2448 9.28575 36.2458 10.0254Z" fill="#F2F2F2"/>
<path d="M35.847 0.150378C35.7424 0.115222 35.6325 0.0964233 35.521 0.0949584C35.3785 0.0927612 35.2371 0.119372 35.1049 0.173083C34.9728 0.226794 34.8526 0.306628 34.7514 0.407825C34.6502 0.509021 34.5701 0.629626 34.5156 0.762561C34.4613 0.895373 34.4337 1.03783 34.4346 1.18163C34.4354 1.39513 34.4986 1.6035 34.6164 1.78075C34.7342 1.95812 34.9013 2.0963 35.0967 2.17809C35.2921 2.25975 35.5071 2.28148 35.7147 2.24034C35.9222 2.19921 36.1131 2.09703 36.2633 1.94677C36.4135 1.7965 36.5164 1.60485 36.559 1.39574C36.6016 1.18663 36.582 0.969592 36.5027 0.771716C36.4233 0.57384 36.2878 0.40404 36.1132 0.283679C36.0306 0.226672 35.9409 0.181995 35.847 0.150378Z" fill="#F2F2F2"/>
</svg>
