<svg width="91" height="34" viewBox="0 0 91 34" fill="none" xmlns="http://www.w3.org/2000/svg">
<g clip-path="url(#clip0_208199_824)">
<path d="M46.9816 11.2616L51.311 10.98C51.4097 11.6921 51.5908 12.2221 51.8871 12.603C52.3645 13.1992 53.023 13.4973 53.8954 13.4973C54.5374 13.4973 55.0478 13.3483 55.3935 13.0336C55.7227 12.7852 55.9202 12.3877 55.9202 11.9737C55.9202 11.5762 55.7392 11.1953 55.4264 10.9469C55.0971 10.6488 54.3234 10.3507 53.1053 10.0857C51.1134 9.63856 49.6813 9.04236 48.8417 8.28055C48.0022 7.56842 47.5248 6.52507 47.5577 5.41547C47.5577 4.65366 47.7882 3.89185 48.2162 3.26253C48.71 2.5504 49.385 1.98732 50.1916 1.67266C51.064 1.29175 52.2822 1.09302 53.8131 1.09302C55.6898 1.09302 57.1219 1.4408 58.1096 2.15293C59.0973 2.8485 59.6899 3.97465 59.871 5.51484L55.591 5.76326C55.4758 5.10081 55.2453 4.62054 54.8667 4.30588C54.4881 3.99122 53.9942 3.84217 53.3522 3.84217C52.8254 3.84217 52.4304 3.95809 52.167 4.17339C51.92 4.37212 51.7554 4.67022 51.7719 5.00144C51.7719 5.24986 51.9036 5.48172 52.1011 5.63077C52.3151 5.8295 52.8254 6.01167 53.6321 6.17728C55.6239 6.60787 57.0396 7.03846 57.9121 7.48561C58.7846 7.93277 59.4101 8.47928 59.7887 9.12517C60.1838 9.78761 60.3813 10.5494 60.3649 11.3278C60.3649 12.2552 60.1015 13.1826 59.5747 13.961C59.0315 14.7725 58.2742 15.4018 57.3853 15.7827C56.447 16.1968 55.2618 16.4121 53.8461 16.4121C51.3439 16.4121 49.6154 15.9318 48.6442 14.9547C47.6729 13.9776 47.0968 12.7521 46.9816 11.2616ZM1.03708 16.1636V1.358H8.62591C10.0251 1.358 11.1116 1.47392 11.8524 1.72234C12.5767 1.9542 13.2187 2.43447 13.6467 3.08035C14.1241 3.79248 14.3546 4.62054 14.3381 5.48172C14.3875 6.9391 13.6467 8.33023 12.3792 9.05892C11.8853 9.34046 11.3421 9.5392 10.7824 9.63856C11.1939 9.75449 11.6055 9.95322 11.9676 10.1851C12.2475 10.4169 12.4779 10.6819 12.6919 10.9635C12.9389 11.245 13.1529 11.5597 13.3339 11.8909L15.5398 16.1802H10.3708L7.93452 11.6259C7.62174 11.0463 7.35836 10.6654 7.11143 10.4832C6.7822 10.2513 6.38712 10.1354 5.99204 10.1354H5.59696V16.1471H1.03708V16.1636ZM5.59696 7.35313H7.52297C7.93452 7.32 8.3296 7.25376 8.72468 7.15439C9.02098 7.10471 9.28437 6.9391 9.46545 6.69068C9.90991 6.09448 9.84407 5.24986 9.30083 4.73647C9.00452 4.48805 8.42837 4.35556 7.60528 4.35556H5.59696V7.35313ZM0 28.8495L4.32941 28.5679C4.42818 29.2801 4.60926 29.81 4.90557 30.1909C5.3665 30.7871 6.04143 31.1018 6.91389 31.1018C7.5559 31.1018 8.06621 30.9527 8.4119 30.6381C8.74114 30.3731 8.93868 29.9922 8.93868 29.5782C8.93868 29.1807 8.7576 28.7998 8.44483 28.5514C8.11559 28.2533 7.3419 27.9552 6.10727 27.6902C4.11541 27.243 2.68325 26.6468 1.8437 25.885C1.00416 25.1729 0.526773 24.1296 0.559696 23.02C0.559696 22.2581 0.790159 21.4963 1.21816 20.867C1.71201 20.1549 2.38694 19.5918 3.19356 19.2771C4.06603 18.8962 5.28419 18.6975 6.81512 18.6975C8.69175 18.6975 10.1239 19.0453 11.1116 19.7574C12.0993 20.4695 12.6755 21.5791 12.8565 23.1193L8.57652 23.3677C8.46129 22.7053 8.23083 22.225 7.85221 21.9104C7.49005 21.5957 6.97974 21.4466 6.33774 21.4632C5.81096 21.4632 5.41588 21.5791 5.1525 21.811C4.88911 22.0097 4.74096 22.3078 4.75742 22.639C4.75742 22.8875 4.88911 23.1193 5.08665 23.2684C5.30065 23.4671 5.81096 23.6493 6.61758 23.8149C8.60944 24.2455 10.0251 24.6761 10.8976 25.1232C11.7701 25.5704 12.3956 26.1169 12.7742 26.7628C13.1693 27.4252 13.3669 28.187 13.3669 28.9488C13.3669 29.8763 13.087 30.7871 12.5767 31.5655C12.0335 32.377 11.2762 33.0063 10.3873 33.3872C9.44899 33.8013 8.26375 34.0165 6.84805 34.0165C4.34588 34.0165 2.6174 33.5363 1.64617 32.5592C0.674928 31.5655 0.131693 30.34 0 28.8495H0Z" fill="#F2F2F2"/>
<path d="M21.8939 27.6902L25.8777 28.8992C25.6637 29.9094 25.2192 30.8699 24.6101 31.7146C24.0504 32.4598 23.3096 33.0394 22.4701 33.4204C21.6141 33.8013 20.5276 34 19.2107 34C17.6139 34 16.297 33.7681 15.2928 33.3044C14.2722 32.8407 13.3997 32.0127 12.659 30.8368C11.9182 29.661 11.556 28.1539 11.556 26.3156C11.556 23.8646 12.198 21.9766 13.4985 20.6683C14.799 19.36 16.6262 18.6975 18.9967 18.6975C20.8569 18.6975 22.3055 19.0784 23.3755 19.8237C24.429 20.5855 25.2192 21.7448 25.746 23.3015L21.7293 24.1958C21.6306 23.848 21.4824 23.5002 21.2849 23.2021C21.0379 22.8544 20.7252 22.5894 20.3466 22.3906C19.9679 22.1919 19.5399 22.1091 19.1119 22.1091C18.0748 22.1091 17.2847 22.5231 16.7415 23.3677C16.3299 23.9805 16.1159 24.9576 16.1159 26.2825C16.1159 27.9221 16.3628 29.0482 16.8567 29.661C17.3505 30.2737 18.0419 30.5718 18.9473 30.5718C19.8198 30.5718 20.4782 30.3234 20.9227 29.8431C21.3672 29.3298 21.6964 28.6176 21.8939 27.6902ZM31.1948 18.9459H35.7382V24.1296H40.7096V18.9459H45.286V33.7516H40.7096V27.7564H35.7382V33.7516H31.1948V18.9459Z" fill="#F2F2F2"/>
<path d="M44.6604 26.3487C44.6604 23.9308 45.3353 22.0428 46.6687 20.7014C48.0021 19.3599 49.8787 18.6809 52.2657 18.6809C54.7185 18.6809 56.5951 19.3434 57.9285 20.6682C59.2619 21.9931 59.9204 23.848 59.9204 26.2328C59.9204 27.9717 59.624 29.3794 59.0479 30.489C58.4882 31.582 57.6157 32.4763 56.5457 33.0725C55.4428 33.6853 54.0765 34 52.4468 34C50.7841 34 49.4178 33.735 48.3314 33.205C47.212 32.6419 46.2901 31.7642 45.681 30.6877C45.0061 29.5284 44.6604 28.0876 44.6604 26.3487ZM49.2038 26.3653C49.2038 27.8558 49.4837 28.9322 50.0269 29.5947C50.5701 30.2406 51.3274 30.5718 52.2821 30.5718C53.2534 30.5718 54.0106 30.2571 54.5539 29.6113C55.0971 28.9654 55.3605 27.8227 55.3605 26.1665C55.3605 24.7754 55.0806 23.7486 54.5209 23.1193C53.9612 22.4734 53.204 22.1587 52.2492 22.1587C51.4097 22.1256 50.6031 22.49 50.0434 23.1359C49.4837 23.7817 49.2038 24.8582 49.2038 26.3653ZM64.579 26.3487C64.579 23.9308 65.2539 22.0428 66.5873 20.7014C67.9207 19.3599 69.7973 18.6809 72.1843 18.6809C74.6371 18.6809 76.5302 19.3434 77.8471 20.6682C79.164 21.9931 79.8389 23.848 79.8389 26.2328C79.8389 27.9717 79.5426 29.3794 78.9665 30.489C78.4068 31.582 77.5343 32.4763 76.4643 33.0725C75.3614 33.6853 73.9951 34 72.3654 34C70.7027 34 69.3364 33.735 68.2499 33.205C67.1306 32.6419 66.2087 31.7642 65.5996 30.6877C64.9247 29.5284 64.579 28.0876 64.579 26.3487ZM69.1224 26.3653C69.1224 27.8558 69.4023 28.9322 69.9455 29.5947C70.4887 30.2406 71.246 30.5718 72.2007 30.5718C73.172 30.5718 73.9292 30.2571 74.4724 29.6113C75.0157 28.9654 75.2791 27.8227 75.2791 26.1665C75.2791 24.7754 74.9992 23.7486 74.4395 23.1193C73.8798 22.4734 73.1226 22.1587 72.1678 22.1587C71.3283 22.1256 70.5052 22.49 69.962 23.1359C69.4023 23.7817 69.1224 24.8582 69.1224 26.3653Z" fill="#F2F2F2"/>
<path d="M79.3617 18.9459H83.9051V30.1081H91.0001V33.7516H79.3452V18.9459H79.3617Z" fill="#F2F2F2"/>
<path d="M74.3538 18.0915C78.928 14.6236 80.3386 8.74499 77.5043 4.96121C74.6701 1.17744 68.6643 0.921368 64.09 4.38927C59.5158 7.85717 58.1052 13.7358 60.9395 17.5196C63.7738 21.3034 69.7795 21.5594 74.3538 18.0915Z" fill="white"/>
<path d="M74.3538 18.0914C78.928 14.6235 80.3386 8.74487 77.5043 4.96109C74.6701 1.17731 68.6643 0.921246 64.09 4.38915C59.5158 7.85705 58.1052 13.7357 60.9395 17.5195C63.7738 21.3032 69.7795 21.5593 74.3538 18.0914Z" fill="#F2F2F2"/>
<path d="M64.5955 10.1519L66.2417 8.99264L68.2665 11.8908C68.6122 12.3546 68.8756 12.8514 69.0731 13.3979C69.1883 13.8119 69.1554 14.2591 68.9908 14.6565C68.7768 15.1534 68.4311 15.5674 67.9702 15.8655C67.4269 16.2464 66.966 16.4617 66.5709 16.528C66.1923 16.5942 65.7972 16.528 65.4351 16.3623C65.04 16.1636 64.6943 15.8821 64.4309 15.5177L65.8466 14.1928C65.9618 14.375 66.11 14.5406 66.2746 14.6731C66.3898 14.7559 66.5215 14.8056 66.6697 14.8056C66.7849 14.8056 66.9002 14.7559 66.9825 14.6897C67.1471 14.5903 67.2623 14.3916 67.2459 14.1928C67.1965 13.9113 67.0812 13.6298 66.9002 13.4145L64.5955 10.1519V10.1519ZM69.534 11.9902L71.032 10.7978C71.1966 10.9965 71.4107 11.1456 71.6411 11.2284C71.9703 11.3278 72.316 11.2615 72.5959 11.0462C72.7934 10.9137 72.958 10.7316 73.0239 10.4997C73.1227 10.2016 72.958 9.87038 72.6617 9.77102C72.6123 9.75445 72.563 9.73789 72.5136 9.73789C72.316 9.72133 71.9703 9.80414 71.46 10.0194C70.6205 10.3672 69.962 10.4997 69.4682 10.45C68.9908 10.4003 68.5463 10.1519 68.2829 9.73789C68.0854 9.45635 67.9866 9.12513 67.9702 8.79391C67.9702 8.413 68.0689 8.0321 68.2829 7.71744C68.5957 7.27029 68.9743 6.88938 69.4352 6.59128C70.1266 6.11101 70.7357 5.87915 71.2625 5.87915C71.7893 5.87915 72.2831 6.12757 72.744 6.64096L71.2625 7.8168C70.9662 7.4359 70.4065 7.35309 70.0279 7.65119L69.9785 7.70087C69.8139 7.80024 69.6986 7.94929 69.6328 8.13146C69.5834 8.26395 69.6163 8.413 69.6986 8.52893C69.7645 8.61174 69.8633 8.67798 69.9785 8.67798C70.1102 8.69454 70.3406 8.6283 70.6699 8.47925C71.493 8.13146 72.1185 7.93273 72.5465 7.86649C72.9087 7.80024 73.2873 7.83336 73.633 7.98241C73.9457 8.1149 74.2091 8.34676 74.3902 8.6283C74.6207 8.95952 74.7524 9.35699 74.7688 9.77102C74.7853 10.2016 74.6701 10.6156 74.4396 10.98C74.1433 11.4271 73.7647 11.808 73.3202 12.1061C72.4148 12.7355 71.674 13.0004 71.0814 12.9011C70.4394 12.8017 69.9126 12.4705 69.534 11.9902V11.9902Z" fill="#4F4F4F"/>
</g>
<defs>
<clipPath id="clip0_208199_824">
<rect width="91" height="34" fill="white"/>
</clipPath>
</defs>
</svg>
