<svg width="64" height="15" viewBox="0 0 64 15" fill="none" xmlns="http://www.w3.org/2000/svg">
<path d="M12.4893 3.32853C13.6408 3.32853 14.5266 3.67435 15.1466 4.40922C15.7667 5.14409 16.0767 6.13833 16.0767 7.43516V8.17003H10.5849C10.6292 8.86168 10.895 9.38041 11.2936 9.76946C11.6921 10.1585 12.2236 10.3746 12.8436 10.3746C13.7294 10.3746 14.438 10.0288 14.9695 9.33718L15.9881 10.2882C15.6338 10.7637 15.1909 11.1527 14.6152 11.4121C14.0394 11.6715 13.4194 11.8012 12.7108 11.8012C11.515 11.8012 10.5406 11.4121 9.78775 10.6772C9.03484 9.94236 8.68054 8.94813 8.68054 7.73776V7.52162C8.68054 6.70029 8.85769 5.96542 9.16771 5.317C9.47773 4.66859 9.9649 4.14986 10.5406 3.80404C11.1164 3.50144 11.7807 3.32853 12.4893 3.32853ZM8.99055 0.605191V2.16138H5.44748V11.6715H3.49879V2.16138H0V0.605191H8.99055ZM12.4893 4.79827C11.9579 4.79827 11.5593 4.97118 11.2493 5.317C10.9392 5.66283 10.7178 6.18156 10.6292 6.78674H14.2166V6.65707C14.1723 6.05188 13.9951 5.57637 13.7294 5.27377C13.4194 4.92795 13.0208 4.79827 12.4893 4.79827ZM19.2212 11.6715H17.3168V0H19.2212V11.6715ZM24.5358 11.8444C23.34 11.8444 22.3657 11.4553 21.6128 10.7205C20.8599 9.98559 20.5055 8.99136 20.5055 7.78098V7.56484C20.5055 6.74352 20.6827 6.00865 20.9927 5.36023C21.3027 4.71182 21.7899 4.19309 22.3657 3.84727C22.9414 3.50145 23.6057 3.32853 24.3144 3.32853C25.4659 3.32853 26.3516 3.67435 26.9717 4.40922C27.5917 5.14409 27.9017 6.13833 27.9017 7.43516V8.17003H22.41C22.4542 8.86168 22.72 9.38041 23.1186 9.76946C23.5172 10.1585 24.0486 10.3746 24.6687 10.3746C25.5544 10.3746 26.263 10.0288 26.7945 9.33718L27.8131 10.2882C27.4588 10.7637 27.016 11.1527 26.4402 11.4121C25.8645 11.7147 25.2444 11.8444 24.5358 11.8444ZM24.3144 4.79827C23.7829 4.79827 23.3843 4.97118 23.0743 5.317C22.7643 5.66283 22.5428 6.18156 22.4542 6.78674H26.0416V6.65707C25.9973 6.05188 25.8202 5.57637 25.5544 5.27377C25.2444 4.92795 24.8458 4.79827 24.3144 4.79827ZM28.8318 7.52162C28.8318 6.22479 29.1418 5.23055 29.7618 4.45245C30.3819 3.67435 31.1791 3.32853 32.1977 3.32853C33.172 3.32853 33.9249 3.67435 34.4564 4.32277L34.545 3.50144H36.2722V11.4986C36.2722 12.5793 35.9179 13.4438 35.2536 14.049C34.545 14.6542 33.6149 15 32.4634 15C31.8434 15 31.2234 14.8703 30.6476 14.611C30.0719 14.3516 29.629 14.049 29.3189 13.6167L30.2047 12.4928C30.7805 13.1844 31.4891 13.487 32.3749 13.487C32.9949 13.487 33.4821 13.3141 33.8807 12.9683C34.235 12.6225 34.4121 12.147 34.4121 11.4986V10.9366C33.8807 11.5418 33.1278 11.8444 32.242 11.8444C31.2676 11.8444 30.4705 11.4553 29.8061 10.6772C29.1418 9.94236 28.8318 8.86168 28.8318 7.52162ZM30.7362 7.69453C30.7362 8.51585 30.9133 9.16427 31.2676 9.63977C31.6219 10.1153 32.1091 10.3314 32.6849 10.3314C33.4378 10.3314 34.0135 10.0288 34.3678 9.3804V5.74928C34.0135 5.14409 33.4378 4.79827 32.6849 4.79827C32.0648 4.79827 31.5777 5.05764 31.2234 5.53314C30.9133 6.00865 30.7362 6.74352 30.7362 7.69453ZM42.4283 5.1441C42.1626 5.10087 41.9412 5.10087 41.6754 5.10087C40.7897 5.10087 40.2139 5.44669 39.9039 6.0951V11.7147H37.9995V3.50144H39.8153L39.8596 4.40922C40.3025 3.67435 40.9668 3.32853 41.764 3.32853C42.0297 3.32853 42.2512 3.37176 42.4283 3.41499V5.1441ZM48.1858 11.6715C48.0973 11.4986 48.0087 11.2392 47.9644 10.8934C47.3443 11.4986 46.6357 11.8012 45.75 11.8012C44.9085 11.8012 44.1999 11.585 43.6684 11.1095C43.1369 10.634 42.8712 10.072 42.8712 9.3804C42.8712 8.51585 43.2255 7.82421 43.8898 7.3487C44.5542 6.8732 45.5285 6.65707 46.7686 6.65707H47.9201V6.13833C47.9201 5.70605 47.7872 5.36023 47.5658 5.10087C47.3001 4.8415 46.9458 4.71182 46.4586 4.71182C46.0157 4.71182 45.6614 4.79827 45.3957 5.01441C45.1299 5.23055 44.9971 5.48991 44.9971 5.83574H43.0927C43.0927 5.40346 43.2255 4.97118 43.5355 4.58214C43.8456 4.19309 44.2442 3.89049 44.7756 3.67435C45.3071 3.45821 45.8828 3.32853 46.5472 3.32853C47.5215 3.32853 48.3187 3.5879 48.8944 4.0634C49.4702 4.53891 49.7802 5.23055 49.7802 6.0951V9.81268C49.7802 10.5476 49.8688 11.1527 50.0902 11.585V11.7147H48.1858V11.6715ZM46.1043 10.3746C46.4586 10.3746 46.8129 10.2882 47.1672 10.1153C47.4772 9.94237 47.7429 9.683 47.9201 9.3804V7.82421H46.9015C46.1928 7.82421 45.6614 7.9539 45.3071 8.17003C44.9528 8.4294 44.7756 8.73199 44.7756 9.16426C44.7756 9.51009 44.9085 9.81268 45.1299 10.0288C45.3957 10.245 45.7057 10.3746 46.1043 10.3746ZM53.3233 3.45821L53.3676 4.32277C53.9433 3.63112 54.7848 3.32853 55.8034 3.32853C56.9107 3.32853 57.7078 3.76081 58.1064 4.58214C58.7265 3.76081 59.568 3.32853 60.6752 3.32853C61.6052 3.32853 62.3138 3.5879 62.7567 4.0634C63.1996 4.58214 63.4653 5.317 63.4653 6.26801V11.6715H61.5609V6.31124C61.5609 5.79251 61.4281 5.40346 61.2066 5.1441C60.9852 4.88473 60.5866 4.79827 60.0551 4.79827C59.6122 4.79827 59.2579 4.92796 58.9922 5.1441C58.7265 5.36023 58.5493 5.66283 58.4165 6.00865V11.6715H56.5121V6.26801C56.4678 5.317 55.9806 4.79827 55.0062 4.79827C54.2533 4.79827 53.7219 5.10086 53.4119 5.70605V11.6715H51.5075V3.45821H53.3233V3.45821Z" fill="#F2F2F2"/>
</svg>
