<svg width="21" height="21" viewBox="0 0 21 21" fill="none" xmlns="http://www.w3.org/2000/svg">
<path fill-rule="evenodd" clip-rule="evenodd" d="M21 10.5C21 16.299 16.299 21 10.5 21C4.70101 21 0 16.299 0 10.5C0 4.70101 4.70101 0 10.5 0C16.299 0 21 4.70101 21 10.5ZM11.143 7.75212C10.1041 8.17735 8.00956 9.04418 4.87609 10.3853C4.3734 10.5816 4.1053 10.7778 4.05503 10.9741C4.01069 11.2914 4.42254 11.4179 4.9802 11.5892C5.05484 11.6122 5.1321 11.6359 5.21122 11.661C5.76419 11.8409 6.50147 12.0535 6.88687 12.0535C7.23876 12.0535 7.62416 11.9227 8.05983 11.6283C10.9922 9.69838 12.5003 8.71707 12.6008 8.70072C12.6679 8.68436 12.7516 8.66801 12.8187 8.71707C12.8764 8.75931 12.872 8.8379 12.8696 8.87983C12.8693 8.88661 12.8689 8.89243 12.8689 8.89698C12.8326 9.06262 11.3756 10.3838 10.5153 11.1638C10.1864 11.4621 9.94475 11.6812 9.90304 11.7264C9.82049 11.8092 9.73637 11.8878 9.65536 11.9634C9.14441 12.4403 8.75726 12.8017 9.66845 13.3946C10.1589 13.708 10.5403 13.9611 10.9311 14.2206C11.2747 14.4487 11.6257 14.6817 12.0646 14.9647C12.1929 15.0447 12.3159 15.1284 12.436 15.2102C12.8806 15.5128 13.2857 15.7884 13.7738 15.7498C14.0586 15.7171 14.3603 15.4554 14.5111 14.6703C14.8797 12.8222 15.5667 8.78249 15.7343 7.13063C15.7511 6.98343 15.7343 6.80352 15.7175 6.72175C15.7008 6.63997 15.6673 6.52549 15.5667 6.44371C15.4327 6.34558 15.2316 6.32922 15.1478 6.32922C14.7457 6.32922 14.1257 6.54184 11.143 7.75212Z" fill="url(#paint0_linear_208181_1131)"/>
<defs>
<linearGradient id="paint0_linear_208181_1131" x1="0.0155701" y1="10.4924" x2="21.0004" y2="10.4924" gradientUnits="userSpaceOnUse">
<stop stop-color="#2AABEE"/>
<stop offset="1" stop-color="#229ED9"/>
</linearGradient>
</defs>
</svg>
